<svg xmlns="http://www.w3.org/2000/svg" width="39" height="39" viewBox="0 0 39 39">
  <g id="Group_208" data-name="Group 208" transform="translate(-298 -708)">
    <rect id="Rectangle_660" data-name="Rectangle 660" width="39" height="39" rx="10" transform="translate(298 708)" fill="#fff3df"/>
    <g id="Group_179" data-name="Group 179" transform="translate(304.5 699.1)">
      <path id="Path_189" data-name="Path 189" d="M33.641,26.818l-.949-2.2A2.172,2.172,0,0,0,30.686,23.3H29.155v-.561a.842.842,0,0,0-.841-.841h-10.7a.557.557,0,0,0-.561.561.571.571,0,0,0,.561.561H27.99v4.141a.921.921,0,0,0,.927.927h3.731V30.7a.193.193,0,0,1-.194.194h-.69a2.075,2.075,0,0,0-1.79-1.035,2.122,2.122,0,0,0-1.79,1.035H22.425a2.075,2.075,0,0,0-1.79-1.035,2.122,2.122,0,0,0-1.79,1.035H16.861a.561.561,0,1,0,0,1.122h1.7a2.072,2.072,0,0,0,4.141,0h5.2a2.072,2.072,0,0,0,4.141,0H32.5A1.321,1.321,0,0,0,33.814,30.7V27.68A2.459,2.459,0,0,0,33.641,26.818ZM20.635,32.878a.949.949,0,1,1,.949-.949A.957.957,0,0,1,20.635,32.878Zm9.339,0a.949.949,0,1,1,.949-.949A.957.957,0,0,1,29.974,32.878Zm-.841-8.433h1.531a1.01,1.01,0,0,1,.949.625l.82,1.9h-3.3Z" transform="translate(-10.824)" fill="#fbb03b"/>
      <path id="Path_190" data-name="Path 190" d="M12.861,33.922h3.969a.561.561,0,1,0,0-1.122H12.861a.557.557,0,0,0-.561.561A.571.571,0,0,0,12.861,33.922Z" transform="translate(-7.686 -8.549)" fill="#fbb03b"/>
      <path id="Path_191" data-name="Path 191" d="M7.961,43.922h3.969a.561.561,0,1,0,0-1.122H7.961a.557.557,0,0,0-.561.561A.571.571,0,0,0,7.961,43.922Z" transform="translate(-3.843 -16.392)" fill="#fbb03b"/>
      <path id="Path_192" data-name="Path 192" d="M7.612,53.361a.557.557,0,0,0-.561-.561H3.061a.561.561,0,1,0,0,1.122H7.029A.549.549,0,0,0,7.612,53.361Z" transform="translate(0 -24.235)" fill="#fbb03b"/>
    </g>
  </g>
</svg>
