<?xml version="1.0" encoding="iso-8859-1"?>
<!-- Generator: Adobe Illustrator 19.0.0, SVG Export Plug-In . SVG Version: 6.00 Build 0)  -->
<svg version="1.1" id="Layer_1" xmlns="http://www.w3.org/2000/svg" xmlns:xlink="http://www.w3.org/1999/xlink" x="0px" y="0px"
	 viewBox="0 0 512 512" style="enable-background:new 0 0 512 512;" xml:space="preserve">
<circle style="fill:#88C5CC;" cx="256" cy="256" r="256"/>
<path style="fill:#E6CBC3;" d="M301.672,389.252h0.02L288,346.664L252,344l-36,2.664l-13.692,42.584h0.02
	c-0.204,0.584-0.328,1.18-0.328,1.772c0,8.824,22.388,15.972,50,15.972c27.608,0,50-7.148,50-15.972
	C302,390.428,301.876,389.836,301.672,389.252z"/>
<path style="fill:#D9BFB8;" d="M301.672,389.252h0.02L288,346.664L252,344l-7,0.516l29,2.148l13.692,42.584h-0.02
	c0.204,0.588,0.328,1.18,0.328,1.776c0,8.064-18.712,14.712-43,15.8c2.292,0.096,4.616,0.172,7,0.172c27.608,0,50-7.148,50-15.972
	C302,390.428,301.876,389.836,301.672,389.252z"/>
<path style="fill:#FFE1D9;" d="M356,168v-41.608C356,93.936,332.916,68,252,68s-104,25.936-104,58.392V168c0,0-16,1.18-16,12v44.276
	c0,10.816,4,19.724,16,19.724c0,54.084,48.092,116,104,116s104-61.916,104-116c12,0,16-8.908,16-19.724V180
	C372,169.18,356,168,356,168z"/>
<path style="fill:#F2D6CE;" d="M252,68c-2.048,0-4.028,0.028-6,0.064c76.048,1.264,98,26.696,98,58.328V168v76
	c0,52.14-44.7,111.532-98,115.744c1.992,0.156,3.988,0.256,6,0.256c55.908,0,104-61.916,104-116v-76v-41.608
	C356,93.936,332.916,68,252,68z"/>
<path style="fill:#99602E;" d="M252,68c-80.916,0-104,25.936-104,58.392V168v44c0.188-132,148.188-20,169.936-88.564
	C341.72,140.68,352.296,193.476,356,212v-44v-41.608C356,93.936,332.916,68,252,68z"/>
<path style="fill:#8C582A;" d="M252,68c-2.04,0-4.02,0.028-5.988,0.064C322.048,69.328,344,94.756,344,126.392v39.476
	c6.372,18.116,10.1,36.632,12,46.132v-44v-41.608C356,93.936,332.916,68,252,68z"/>
<path style="fill:#E6E6E6;" d="M256,512c63.116,0,120.864-22.892,165.5-60.756L316.188,392l-64,16l-64-16L87.5,448.636
	C132.528,488.056,191.452,512,256,512z"/>
<g>
	<polygon style="fill:#F5F5F5;" points="252.188,404 208.188,368 188.188,392 220.188,448 	"/>
	<polygon style="fill:#F5F5F5;" points="252.188,404 296.188,368 316.188,392 284.188,448 	"/>
</g>
<g>
	<circle style="fill:#242424;" cx="252.2" cy="424" r="20"/>
	<polygon style="fill:#242424;" points="208.188,444 208.188,404 244.188,424 	"/>
	<polygon style="fill:#242424;" points="296.188,444 296.188,404 260.188,424 	"/>
	<path style="fill:#242424;" d="M256,512c64.064,0,122.58-23.584,167.48-62.48L352.188,412c0,35.348-44.764,76-100,76
		c-55.232,0-100-40.652-100-76l-67.832,33.916C129.764,486.98,189.956,512,256,512z"/>
</g>
<g>
	<path style="fill:#263740;" d="M388,192h-16v-68c0-47.776-40.436-72-120.188-72C172.312,52,132,76.224,132,124v68h-16v-68
		c0-40.144,23.564-88,135.812-88C364.372,36,388,83.856,388,124V192z"/>
	<path style="fill:#263740;" d="M148,268h-36c-8.8,0-16-7.2-16-16v-68c0-8.8,7.2-16,16-16h36V268z"/>
	<path style="fill:#263740;" d="M356,268h36c8.8,0,16-7.2,16-16v-68c0-8.8-7.2-16-16-16h-36V268z"/>
	<path style="fill:#263740;" d="M360,308h-64c-4.416,0-8-3.584-8-8s3.584-8,8-8h64c4.192,0,12,0,12-16v-20c0-4.416,3.584-8,8-8
		s8,3.584,8,8v20C388,296.336,377.796,308,360,308z"/>
	<path style="fill:#263740;" d="M304,304c0,6.6-5.4,12-12,12h-24c-6.6,0-12-5.4-12-12v-8c0-6.6,5.4-12,12-12h24c6.6,0,12,5.4,12,12
		V304z"/>
</g>
<g>
</g>
<g>
</g>
<g>
</g>
<g>
</g>
<g>
</g>
<g>
</g>
<g>
</g>
<g>
</g>
<g>
</g>
<g>
</g>
<g>
</g>
<g>
</g>
<g>
</g>
<g>
</g>
<g>
</g>
</svg>
